<svg xmlns="http://www.w3.org/2000/svg" width="21.387" height="20.127" viewBox="0 0 21.387 20.127"><defs><style>.a{fill:#777;stroke:#777;stroke-linecap:round;stroke-linejoin:round;stroke-width:2px;}</style></defs><g transform="translate(-5.865 -7.348)"><path class="a" d="M267.966,63.255l-9.5-8.367a.175.175,0,0,0-.233,0l-9.5,8.367a.176.176,0,0,0,.116.308h2.662a.176.176,0,0,1,.175.175v9.007a.176.176,0,0,0,.176.175h4.309V68.943a2.179,2.179,0,0,1,4.357,0v3.979h4.32a.176.176,0,0,0,.176-.175V63.739a.176.176,0,0,1,.176-.175h2.651A.176.176,0,0,0,267.966,63.255Z" transform="translate(-241.79 -46.446)"/></g></svg>