<svg xmlns="http://www.w3.org/2000/svg" width="183.458" height="44.91" viewBox="0 0 183.458 44.91"><defs><style>.a{fill:#f59100;}</style></defs><g transform="translate(-1064.193 -400.351)"><path class="a" d="M1109.8,413.008a6.577,6.577,0,0,0-.148-1.039c-.105-.5-.264-.982-.356-1.48a10.751,10.751,0,0,0-.806-2.407c-.035-.078-.073-.155-.11-.232l-.015-.035a13.528,13.528,0,0,0-6.717-6.2,15.558,15.558,0,0,0-6.586-1.067c-3.115-.03-5.206,1.641-6.514,2.421a2.833,2.833,0,0,1-2.321.4c-.793-.451-1.568-.936-2.346-1.415a7.3,7.3,0,0,0-1.664-.775c-.539-.167-1.077-.34-1.621-.491-.244-.068-.5-.086-.751-.131-.294-.053-.585-.138-.881-.162a12.761,12.761,0,0,0-1.345-.038c-.6.015-1.2.058-1.8.1a12.754,12.754,0,0,0-1.483.133,16.815,16.815,0,0,0-2.091.508,8.072,8.072,0,0,0-2.117,1.032,11.4,11.4,0,0,0-2.812,2.76,17.469,17.469,0,0,0-1.571,2.792,14.2,14.2,0,0,0-.583,1.427c-.2.576-.362,1.164-.516,1.754a13.036,13.036,0,0,0-.368,1.653,14.269,14.269,0,0,0-.09,1.88c.006.938.082,1.876.074,2.814a9.257,9.257,0,0,0,.222,2.186c.163.7.272,1.426.5,2.11a13.869,13.869,0,0,0,.895,2.135,8.156,8.156,0,0,0,1.538,2.228,17.023,17.023,0,0,0,1.38,1.285q.344.258.7.5h0s1.142.828,1.335,1.5a13.644,13.644,0,0,1,.647,2.919q.015.61.028,1.22c0,.022,0,.044,0,.066.056.825.115,1.65.167,2.475.022.343.025.688.044,1.031.038.657.086,1.315.121,1.972.041.768.088,1.537.1,2.306a23.167,23.167,0,0,0,.18,2.606,1.118,1.118,0,0,0,.742.974,6.105,6.105,0,0,0,2.1.38c1.614.074,3.231.078,4.847.1,1.005.013,2.011.009,3.017.007.778,0,1.556-.013,2.334-.013q1.6,0,3.195.012c.493,0,.985.028,1.478.043v.015c.8-.015,1.6-.034,2.4-.044.741-.009,1.482,0,2.223-.014.462-.006.923-.025,1.385-.043q1.274-.05,2.548-.107a.981.981,0,0,0,.766-.435,2.8,2.8,0,0,0,.367-1.286c.1-.59.161-1.188.238-1.782.074-.565.156-1.13.222-1.7.067-.583.118-1.167.178-1.751q.052-.5.113-1c.064-.529.146-1.056.194-1.586.074-.811.127-1.624.19-2.436.01-.125.019-.25.029-.375,0-.005.443-2.129.661-3.242a2.433,2.433,0,0,1,.9-1.432q.132-.085.259-.176l0,0h0q.227-.163.443-.343c.6-.5,1.245-.947,1.8-1.49.58-.567,1.082-1.214,1.607-1.835a11.883,11.883,0,0,0,1.883-3.23c.376-.922.689-1.871,1-2.816a9.959,9.959,0,0,0,.36-1.411,14.651,14.651,0,0,0,.223-1.805C1109.862,414.284,1109.832,413.644,1109.8,413.008Zm-20.168-.231a1.879,1.879,0,0,1,1.08-.7,3.648,3.648,0,0,1,.4-.09,3.372,3.372,0,0,1,3.136,1.329,2.428,2.428,0,0,1,.38,1.158.944.944,0,0,1-.4.881.849.849,0,0,1-.993-.374,2.271,2.271,0,0,0-.781-.8,1.632,1.632,0,0,0-1.728-.045,1.086,1.086,0,0,1-.118.082l0,0h0a.775.775,0,0,1-1.064-.257A1.2,1.2,0,0,1,1089.633,412.777Zm.192,6.023a1.058,1.058,0,0,1,.993-.685s1.361-.116,1.258,2.133c0,.011,0,.02,0,.031,0,1.809-.678,2.247-.678,2.247h0a1.228,1.228,0,0,1-2.051-.79A5.55,5.55,0,0,1,1089.826,418.8Zm-11.852-5.878a1.834,1.834,0,0,1,.3-.406l0-.006c.541-.7,2.04-.661,2.04-.661a2.605,2.605,0,0,1,1.954.843,1.115,1.115,0,0,1,.261,1.293.883.883,0,0,1-1.464.293,1.2,1.2,0,0,0-1.7-.189,1.885,1.885,0,0,1-.383.17.909.909,0,0,1-.995-.285A.979.979,0,0,1,1077.973,412.923Zm4.437,6.789a5.954,5.954,0,0,1-.437,2.433,1.087,1.087,0,0,1-.177.265h0l-.027.028a.373.373,0,0,1-.042.038,1.1,1.1,0,0,1-.692.228,1.243,1.243,0,0,1-1.4-.9,4.066,4.066,0,0,1-.09-1.542,5.274,5.274,0,0,1,.468-1.979,1.064,1.064,0,0,1,1.008-.618,1.016,1.016,0,0,1,.3.056h0c1.015.118,1.124,1.273,1.091,1.992Zm12.794,6.036a1.288,1.288,0,0,1-.814,1.013c-1,.523-1.982,1.07-3,1.551a13.935,13.935,0,0,1-1.543.49,6.932,6.932,0,0,1-1.365.3h0a13.685,13.685,0,0,1-3.627.258c-.053,0-.11,0-.173,0a15.3,15.3,0,0,1-3.43-.39h0a14.317,14.317,0,0,1-4.09-1.894,2.4,2.4,0,0,1-1.006-1.284.832.832,0,0,1-.052-.343v0c-.02-.6.875-.77.875-.77h0a1.028,1.028,0,0,1,.471.018c.687.182,2,1.695,3.989,1.935,1.091.132,2.479.312,4.01.372,4.361-.236,6.2-1.109,6.747-1.435.062-.041.125-.081.186-.124a11.2,11.2,0,0,1,1.515-.819.872.872,0,0,1,.981.209A.979.979,0,0,1,1095.2,425.747Z"/><g transform="translate(1121.881 403.409)"><path class="a" d="M1269.618,414.01h-4.056v-2.987h11.743v2.987h-4.076v12.026h-3.612Z" transform="translate(-1265.562 -411.024)"/><path class="a" d="M1314.656,411.024h9.524v2.987h-5.912V416.8h5.025v3.027h-5.025v3.188h6.134v3.027h-9.746Z" transform="translate(-1300.592 -411.024)"/><path class="a" d="M1361.388,422.586h-4.439l-.868,3.451h-3.672l4.661-15.013h4.318l4.661,15.013h-3.793Zm-.686-2.785-.323-1.271c-.4-1.493-.787-3.289-1.191-4.823h-.08c-.363,1.574-.767,3.329-1.15,4.823l-.323,1.271Z" transform="translate(-1327.529 -411.024)"/><path class="a" d="M1405.517,411.024h3.894l2.381,6.477c.3.868.545,1.816.827,2.744h.1c.3-.928.545-1.876.827-2.744l2.3-6.477h3.914v15.013h-3.289v-5.145a49.832,49.832,0,0,1,.464-5.206h-.081l-1.251,3.592-2.018,5.488h-1.978l-2.038-5.488-1.211-3.592h-.081a49.832,49.832,0,0,1,.464,5.206v5.145h-3.229Z" transform="translate(-1365.423 -411.024)"/><path class="a" d="M1466.163,451.067a2.141,2.141,0,1,1,2.139,2.24A2.134,2.134,0,0,1,1466.163,451.067Z" transform="translate(-1408.695 -438.012)"/><path class="a" d="M1266.266,508.381l6.477-9.847h-5.852v-2.986h10.291v2.159l-6.477,9.826h6.538v3.027h-10.977Z" transform="translate(-1266.064 -471.334)"/><path class="a" d="M1313.176,495.548h9.524v2.986h-5.912v2.785h5.024v3.027h-5.024v3.188h6.134v3.027h-9.746Z" transform="translate(-1299.536 -471.334)"/><path class="a" d="M1365.662,510.56l-2.765-5.286h-1.735v5.286h-3.612V495.548h5.509c3.208,0,5.872,1.09,5.872,4.722a4.443,4.443,0,0,1-2.583,4.338l3.349,5.952Zm-4.5-8.132h1.614c1.715,0,2.623-.747,2.623-2.159s-.908-1.876-2.623-1.876h-1.614Z" transform="translate(-1331.198 -471.334)"/><path class="a" d="M1405.024,502.27c0-4.923,2.785-7.708,6.881-7.708s6.881,2.8,6.881,7.708c0,4.923-2.784,7.869-6.881,7.869S1405.024,507.193,1405.024,502.27Zm10.089,0c0-2.905-1.231-4.621-3.208-4.621s-3.188,1.715-3.188,4.621c0,2.926,1.211,4.762,3.188,4.762S1415.113,505.2,1415.113,502.27Z" transform="translate(-1365.071 -470.63)"/><path class="a" d="M1462.782,495.548h3.612v5.71h4.944v-5.71h3.572V510.56h-3.572v-6.174h-4.944v6.174h-3.612Z" transform="translate(-1406.283 -471.334)"/><path class="a" d="M1514.9,502.27c0-4.923,2.785-7.708,6.881-7.708s6.88,2.8,6.88,7.708c0,4.923-2.784,7.869-6.88,7.869S1514.9,507.193,1514.9,502.27Zm10.089,0c0-2.905-1.231-4.621-3.208-4.621s-3.188,1.715-3.188,4.621c0,2.926,1.211,4.762,3.188,4.762S1524.993,505.2,1524.993,502.27Z" transform="translate(-1443.473 -470.63)"/><path class="a" d="M1572.379,503.5v-7.95h3.592v8.334c0,2.845.847,3.854,2.5,3.854,1.634,0,2.542-1.009,2.542-3.854v-8.334h3.471v7.95c0,5.065-2.018,7.345-6.013,7.345C1574.457,510.843,1572.379,508.563,1572.379,503.5Z" transform="translate(-1484.483 -471.334)"/><path class="a" d="M1622.248,507.98l2.038-2.482a6.069,6.069,0,0,0,3.652,1.534c1.331,0,1.957-.5,1.957-1.311,0-.868-.827-1.15-2.119-1.695l-1.917-.807a4.4,4.4,0,0,1-3.047-4.116c0-2.522,2.26-4.54,5.448-4.54a6.985,6.985,0,0,1,4.883,1.978l-1.8,2.26a4.883,4.883,0,0,0-3.087-1.15c-1.11,0-1.8.444-1.8,1.251,0,.827.948,1.15,2.28,1.675l1.877.747a4.15,4.15,0,0,1,2.966,4.116c0,2.5-2.1,4.7-5.73,4.7A8.4,8.4,0,0,1,1622.248,507.98Z" transform="translate(-1520.066 -470.63)"/><path class="a" d="M1670.567,495.548h9.524v2.986h-5.912v2.785h5.024v3.027h-5.024v3.188h6.134v3.027h-9.746Z" transform="translate(-1554.542 -471.334)"/></g></g></svg>