<svg xmlns="http://www.w3.org/2000/svg" width="36" height="36" viewBox="0 0 36 36"><defs><style>.a{fill:none;}.b{fill:#a5a5a5;}</style></defs><g transform="translate(-761 -711)"><rect class="a" width="36" height="36" rx="10" transform="translate(761 711)"/><path class="b" d="M15.5,22.7h-.1l-.1-.1V19.5a3.425,3.425,0,0,0-.4-1.8c2.3-.4,4.8-1.6,4.8-6.1a5.167,5.167,0,0,0-1.1-3.2,4.9,4.9,0,0,0-.2-3.1L18.1,5a1.034,1.034,0,0,0-.4-.1,5.527,5.527,0,0,0-3,1.2A20.22,20.22,0,0,0,12,5.8a12.65,12.65,0,0,0-2.8.3A5.725,5.725,0,0,0,6.2,5c-.2,0-.3.1-.4.1a.451.451,0,0,0-.3.3,4.9,4.9,0,0,0-.2,3.1,5.167,5.167,0,0,0-1.1,3.2c0,4.4,2.6,5.6,4.8,6.1a6.89,6.89,0,0,0-.3.8,2,2,0,0,1-.9.2,1.5,1.5,0,0,1-1.1-.4l-.1-.1c-.1-.1-.1-.2-.2-.2L6.3,18l-.1-.1A2.843,2.843,0,0,0,4,16.5,1,1,0,0,0,3,17c-.2.5.4.9.7,1.1a2.479,2.479,0,0,1,1,1.4,3.12,3.12,0,0,0,3.2,2h.7v1.4l-.1.1h0A11.641,11.641,0,0,1,1,12.3,11,11,0,1,1,15.5,22.7Z" transform="translate(767 716.7)"/></g></svg>