<svg xmlns="http://www.w3.org/2000/svg" width="36" height="36" viewBox="0 0 36 36"><defs><style>.a{fill:none;}.b{fill:#a5a5a5;stroke:#a5a5a5;stroke-linecap:round;stroke-linejoin:round;stroke-width:2px;}</style></defs><g transform="translate(-712 -711)"><rect class="a" width="36" height="36" rx="10" transform="translate(712 711)"/><g transform="translate(714.077 712.492)"><path class="b" d="M266.06,62.425l-8.563-7.54a.158.158,0,0,0-.21,0l-8.563,7.54a.158.158,0,0,0,.1.277h2.4a.158.158,0,0,1,.158.158v8.118a.158.158,0,0,0,.159.158h3.884V67.55a1.963,1.963,0,0,1,3.927,0v3.586h3.894a.158.158,0,0,0,.159-.158V62.86a.158.158,0,0,1,.159-.158h2.389A.158.158,0,0,0,266.06,62.425Z" transform="translate(-241.79 -46.446)"/></g></g></svg>